<svg width="14" height="18" viewBox="0 0 14 18" fill="none" xmlns="http://www.w3.org/2000/svg">
<path d="M2.17696 0.69216L2.17649 0.691832C2.01842 0.58269 1.83049 0.516649 1.63327 0.502752C1.43608 0.488857 1.23947 0.527804 1.06547 0.614183L2.17696 0.69216ZM2.17696 0.69216L13.0645 8.19106L13.0647 8.19119M2.17696 0.69216L13.0647 8.19119M13.0647 8.19119C13.2015 8.28537 13.3113 8.40847 13.3864 8.54904C13.4614 8.68951 13.5 8.84409 13.5 9.0001C13.5 9.15611 13.4614 9.31069 13.3864 9.45116C13.3113 9.59173 13.2015 9.71484 13.0647 9.80901L13.0645 9.80914M13.0647 8.19119L13.0645 9.80914M13.0645 9.80914L2.17696 17.308L2.17658 17.3083M13.0645 9.80914L2.17658 17.3083M2.17658 17.3083C2.01856 17.4174 1.83072 17.4833 1.63362 17.4972C1.43649 17.5111 1.23994 17.4722 1.06597 17.3859C0.892115 17.2997 0.748809 17.1701 0.649902 17.0136C0.55111 16.8573 0.499849 16.6795 0.500001 16.4994V16.499M2.17658 17.3083L0.500001 16.499M0.500001 16.499L0.500001 1.5012L0.500001 1.50066M0.500001 16.499L0.500001 1.50066M0.500001 1.50066C0.499805 1.32066 0.550995 1.14282 0.649695 0.986542M0.500001 1.50066L0.649695 0.986542M0.649695 0.986542C0.748492 0.830108 0.891659 0.700552 1.06537 0.61423L0.649695 0.986542Z" fill="white" stroke="white"/>
</svg>
