<svg width="28" height="28" viewBox="0 0 28 28" fill="none" xmlns="http://www.w3.org/2000/svg">
<path d="M20.5486 18.1018C22.2431 15.7895 23.0021 12.9226 22.6736 10.0748C22.3452 7.22694 20.9536 4.60811 18.7772 2.74225C16.6008 0.876383 13.8002 -0.0989223 10.9356 0.0114558C8.07097 0.121834 5.35368 1.30976 3.32733 3.33756C1.30097 5.36536 0.114995 8.0835 0.00666659 10.9482C-0.101662 13.8129 0.875648 16.6128 2.74307 18.7878C4.61049 20.9629 7.23031 22.3526 10.0784 22.679C12.9265 23.0055 15.7928 22.2444 18.1039 20.5483H18.1021C18.1534 20.6183 18.2106 20.6854 18.2736 20.7495L25.0111 27.487C25.3392 27.8154 25.7844 28 26.2486 28.0001C26.7128 28.0003 27.1581 27.816 27.4865 27.4879C27.8149 27.1598 27.9994 26.7146 27.9996 26.2504C27.9998 25.7862 27.8155 25.3409 27.4874 25.0125L20.7499 18.275C20.6873 18.2117 20.62 18.1549 20.5486 18.1018ZM21.0001 11.3748C21.0001 12.6387 20.7511 13.8903 20.2674 15.0581C19.7837 16.2259 19.0748 17.2869 18.181 18.1807C17.2872 19.0744 16.2262 19.7834 15.0584 20.2671C13.8907 20.7508 12.6391 20.9998 11.3751 20.9998C10.1111 20.9998 8.85954 20.7508 7.69178 20.2671C6.52402 19.7834 5.46297 19.0744 4.5692 18.1807C3.67544 17.2869 2.96647 16.2259 2.48277 15.0581C1.99906 13.8903 1.75011 12.6387 1.75011 11.3748C1.75011 8.82206 2.76417 6.37391 4.5692 4.56887C6.37424 2.76383 8.8224 1.74977 11.3751 1.74977C13.9278 1.74977 16.376 2.76383 18.181 4.56887C19.986 6.37391 21.0001 8.82206 21.0001 11.3748Z" fill="white"/>
</svg>
